<?xml version="1.0" standalone="no"?>
<!DOCTYPE svg PUBLIC "-//W3C//DTD SVG 20010904//EN"
 "http://www.w3.org/TR/2001/REC-SVG-20010904/DTD/svg10.dtd">
<svg version="1.0" xmlns="http://www.w3.org/2000/svg"
 width="512.000000pt" height="512.000000pt" viewBox="0 0 512.000000 512.000000"
 preserveAspectRatio="xMidYMid meet">
<metadata>
Created by potrace 1.16, written by Peter Selinger 2001-2019
</metadata>
<g transform="translate(0.000000,512.000000) scale(0.100000,-0.100000)"
fill="#000000" stroke="none">
<path d="M2240 4944 c-587 -80 -1124 -372 -1508 -819 -465 -542 -668 -1285
-542 -1982 188 -1043 1013 -1830 2063 -1968 155 -20 459 -20 614 0 963 126
1753 811 2008 1742 66 241 80 347 80 643 0 296 -14 402 -80 643 -259 942
-1078 1641 -2047 1746 -135 15 -462 12 -588 -5z m560 -325 c857 -95 1581 -741
1779 -1586 69 -295 69 -651 1 -942 -55 -232 -162 -482 -289 -670 -7 -12 -29 3
-103 69 -373 332 -785 530 -1263 606 -155 25 -482 30 -645 10 -515 -63 -949
-261 -1348 -616 -74 -66 -96 -81 -103 -69 -165 244 -280 551 -324 860 -19 135
-19 423 0 557 80 561 383 1070 835 1399 418 304 936 440 1460 382z"/>
<path d="M2360 4305 c-357 -80 -630 -337 -732 -691 -20 -69 -23 -101 -23 -254
0 -153 3 -185 23 -254 97 -334 344 -581 678 -678 69 -20 101 -23 254 -23 153
0 185 3 254 23 334 97 581 344 678 678 20 69 23 101 23 254 0 153 -3 185 -23
254 -96 332 -343 580 -673 677 -97 28 -359 36 -459 14z"/>
</g>
</svg>
